<svg width="24" height="24" viewBox="0 0 24 24" fill="none" xmlns="http://www.w3.org/2000/svg">
<path d="M11.3137 3.12063C11.7759 2.6467 12.3275 2.26926 12.9366 2.01019C13.5458 1.75111 14.2003 1.61557 14.8622 1.61143C15.5241 1.60728 16.1803 1.73461 16.7926 1.98603C17.405 2.23744 17.9613 2.60795 18.4293 3.07604C18.8974 3.54414 19.2678 4.10051 19.5191 4.71288C19.7704 5.32525 19.8977 5.98144 19.8934 6.64336C19.8892 7.30529 19.7536 7.95979 19.4944 8.56889C19.2352 9.17799 18.8577 9.72957 18.3837 10.1916L10.6067 17.9696C10.329 18.252 9.99817 18.4765 9.63324 18.6303C9.26832 18.7842 8.87655 18.8642 8.48053 18.8659C8.08451 18.8675 7.69208 18.7908 7.32588 18.64C6.95968 18.4892 6.62695 18.2675 6.34689 17.9875C6.06683 17.7075 5.84497 17.3748 5.69413 17.0086C5.54328 16.6425 5.46642 16.2501 5.46798 15.854C5.46955 15.458 5.54951 15.0662 5.70325 14.7013C5.85699 14.3363 6.08146 14.0054 6.36373 13.7276L14.1417 5.94963L15.5557 7.36363L7.77773 15.1416C7.68222 15.2339 7.60604 15.3442 7.55363 15.4662C7.50122 15.5882 7.47364 15.7194 7.47248 15.8522C7.47133 15.985 7.49663 16.1167 7.54691 16.2396C7.59719 16.3625 7.67144 16.4741 7.76534 16.568C7.85923 16.6619 7.97088 16.7362 8.09378 16.7865C8.21667 16.8367 8.34835 16.862 8.48113 16.8609C8.61391 16.8597 8.74513 16.8321 8.86714 16.7797C8.98914 16.7273 9.09949 16.6511 9.19173 16.5556L16.9707 8.77763C17.2493 8.49903 17.4703 8.16828 17.6211 7.80428C17.7719 7.44027 17.8495 7.05013 17.8495 6.65613C17.8495 6.26213 17.7719 5.87199 17.6211 5.50798C17.4703 5.14397 17.2493 4.81323 16.9707 4.53463C16.6921 4.25603 16.3614 4.03503 15.9974 3.88426C15.6334 3.73348 15.2432 3.65587 14.8492 3.65587C14.4552 3.65587 14.0651 3.73348 13.7011 3.88426C13.3371 4.03503 13.0063 4.25603 12.7277 4.53463L4.94973 12.3136C4.03894 13.2566 3.53497 14.5197 3.54636 15.8306C3.55775 17.1416 4.0836 18.3957 5.01064 19.3227C5.93768 20.2498 7.19174 20.7756 8.50273 20.787C9.81371 20.7984 11.0767 20.2944 12.0197 19.3836L20.5057 10.8986L21.9197 12.3136L13.4347 20.7986C12.1219 22.1114 10.3413 22.849 8.48473 22.849C6.62812 22.849 4.84755 22.1114 3.53473 20.7986C2.22191 19.4858 1.48438 17.7052 1.48438 15.8486C1.48437 13.992 2.22191 12.2115 3.53473 10.8986L11.3137 3.12063Z" fill="black"/>
</svg>
