<svg width="198" height="99" viewBox="0 0 198 99" fill="none" xmlns="http://www.w3.org/2000/svg">
<g clip-path="url(#clip0_242_1738)">
<path d="M160.818 99H142.222L136.168 91.8755L130.24 84.8618L126.887 80.9099L118.244 70.7235L117.591 69.9488L108.291 58.9878L106.244 56.576L98.9907 48.0267L94.2573 42.4424L89.7044 37.0795L82.2568 28.2949L80.4042 26.1046L78.5516 28.2949L71.104 37.0656L66.5512 42.4424L61.8038 48.0267L54.5507 56.576L52.5036 58.9878L43.2173 69.9488L42.5503 70.7235L33.9217 80.896L30.5684 84.8618H80.4042V99H0L6.03958 91.8755L11.9819 84.8618L15.3352 80.9099L23.9638 70.7235L24.6307 69.9488L33.9171 58.9878L35.9642 56.576L43.2173 48.0267L47.9646 42.4424L52.5175 37.0656L59.9651 28.2949L61.8177 26.1184L71.104 15.1573L71.9516 14.1613L80.3996 4.19629L88.8476 14.1613L89.6952 15.1435L98.9954 26.1046L100.848 28.2949L108.282 37.0656L112.848 42.4424L117.582 48.0267L124.835 56.576L126.882 58.9878L136.182 69.9488L136.835 70.7235L145.464 80.896V80.9099L148.831 84.8618L154.76 91.8617L160.813 99H160.818Z" fill="white"/>
<path d="M198.001 98.9952H179.405L173.365 91.8707L167.423 84.8569L164.07 80.905L155.427 70.7187L154.774 69.944L145.474 58.9829L143.427 56.5712L136.188 48.0219L140.921 42.4376L145.474 37.0746L152.921 28.2901L154.774 26.0997L164.074 15.1525L164.922 14.1565L173.37 4.19145L176.918 0.00439453H195.5L191.952 4.19145L183.504 14.1565L182.656 15.1525L173.37 26.1136L171.517 28.2901L164.07 37.0608L159.503 42.4376L154.769 48.0219L162.022 56.5712L164.07 58.9829L173.37 69.944L174.023 70.7187L182.651 80.905L186.005 84.8569L191.947 91.8707L198.001 98.9952Z" fill="white"/>
</g>
<defs>
<clipPath id="clip0_242_1738">
<rect width="198" height="99" fill="white"/>
</clipPath>
</defs>
</svg>
