<svg width="60" height="60" viewBox="0 0 60 60" fill="none" xmlns="http://www.w3.org/2000/svg">
<path d="M50.625 15H41.25C41.25 12.0163 40.0647 9.15483 37.955 7.04505C35.8452 4.93526 32.9837 3.75 30 3.75C27.0163 3.75 24.1548 4.93526 22.045 7.04505C19.9353 9.15483 18.75 12.0163 18.75 15H9.375C8.38044 15 7.42661 15.3951 6.72335 16.0984C6.02009 16.8016 5.625 17.7554 5.625 18.75V46.875C5.625 47.8696 6.02009 48.8234 6.72335 49.5266C7.42661 50.2299 8.38044 50.625 9.375 50.625H50.625C51.6196 50.625 52.5734 50.2299 53.2766 49.5266C53.9799 48.8234 54.375 47.8696 54.375 46.875V18.75C54.375 17.7554 53.9799 16.8016 53.2766 16.0984C52.5734 15.3951 51.6196 15 50.625 15ZM30 7.5C31.9891 7.5 33.8968 8.29018 35.3033 9.6967C36.7098 11.1032 37.5 13.0109 37.5 15H22.5C22.5 13.0109 23.2902 11.1032 24.6967 9.6967C26.1032 8.29018 28.0109 7.5 30 7.5ZM50.625 46.875H9.375V18.75H18.75V22.5C18.75 22.9973 18.9475 23.4742 19.2992 23.8258C19.6508 24.1775 20.1277 24.375 20.625 24.375C21.1223 24.375 21.5992 24.1775 21.9508 23.8258C22.3025 23.4742 22.5 22.9973 22.5 22.5V18.75H37.5V22.5C37.5 22.9973 37.6975 23.4742 38.0492 23.8258C38.4008 24.1775 38.8777 24.375 39.375 24.375C39.8723 24.375 40.3492 24.1775 40.7008 23.8258C41.0525 23.4742 41.25 22.9973 41.25 22.5V18.75H50.625V46.875Z" fill="#B4AB9D"/>
</svg>
