<svg width="33" height="33" viewBox="0 0 33 33" fill="none" xmlns="http://www.w3.org/2000/svg">
<path d="M22.2075 12.7925C22.3005 12.8854 22.3742 12.9957 22.4246 13.1171C22.4749 13.2385 22.5008 13.3686 22.5008 13.5C22.5008 13.6314 22.4749 13.7615 22.4246 13.8829C22.3742 14.0043 22.3005 14.1146 22.2075 14.2075L15.2075 21.2075C15.1146 21.3005 15.0043 21.3742 14.8829 21.4246C14.7615 21.4749 14.6314 21.5008 14.5 21.5008C14.3686 21.5008 14.2385 21.4749 14.1171 21.4246C13.9957 21.3742 13.8854 21.3005 13.7925 21.2075L10.7925 18.2075C10.6049 18.0199 10.4994 17.7654 10.4994 17.5C10.4994 17.2346 10.6049 16.9801 10.7925 16.7925C10.9801 16.6049 11.2346 16.4994 11.5 16.4994C11.7654 16.4994 12.0199 16.6049 12.2075 16.7925L14.5 19.0863L20.7925 12.7925C20.8854 12.6995 20.9957 12.6258 21.1171 12.5754C21.2385 12.5251 21.3686 12.4992 21.5 12.4992C21.6314 12.4992 21.7615 12.5251 21.8829 12.5754C22.0043 12.6258 22.1146 12.6995 22.2075 12.7925ZM29.5 16.5C29.5 19.0712 28.7376 21.5846 27.3091 23.7224C25.8807 25.8603 23.8503 27.5265 21.4749 28.5104C19.0995 29.4944 16.4856 29.7518 13.9638 29.2502C11.4421 28.7486 9.1257 27.5105 7.30762 25.6924C5.48953 23.8743 4.25141 21.5579 3.7498 19.0362C3.24819 16.5144 3.50563 13.9006 4.48957 11.5251C5.47351 9.14968 7.13975 7.11935 9.27759 5.6909C11.4154 4.26244 13.9288 3.5 16.5 3.5C19.9467 3.50364 23.2512 4.87445 25.6884 7.31163C28.1256 9.74882 29.4964 13.0533 29.5 16.5ZM27.5 16.5C27.5 14.3244 26.8549 12.1977 25.6462 10.3887C24.4375 8.57979 22.7195 7.16989 20.7095 6.33733C18.6995 5.50476 16.4878 5.28692 14.354 5.71136C12.2202 6.1358 10.2602 7.18345 8.72183 8.72183C7.18345 10.2602 6.13581 12.2202 5.71137 14.354C5.28693 16.4878 5.50477 18.6995 6.33733 20.7095C7.16989 22.7195 8.57979 24.4375 10.3887 25.6462C12.1977 26.8549 14.3244 27.5 16.5 27.5C19.4164 27.4967 22.2123 26.3367 24.2745 24.2745C26.3367 22.2123 27.4967 19.4164 27.5 16.5Z" fill="#B4AB9D"/>
</svg>
