<svg width="20" height="20" viewBox="0 0 20 20" fill="none" xmlns="http://www.w3.org/2000/svg">
<g id="Complete">
<g id="download">
<g id="Group">
<path id="Vector (Stroke)" fill-rule="evenodd" clip-rule="evenodd" d="M0.816327 9.65869C1.26717 9.65869 1.63265 10.0081 1.63265 10.4392V17.2684C1.63265 17.5789 1.76166 17.8767 1.9913 18.0963C2.22093 18.3158 2.53239 18.4392 2.85714 18.4392H17.1429C17.4676 18.4392 17.7791 18.3158 18.0087 18.0963C18.2383 17.8767 18.3673 17.5789 18.3673 17.2684V10.4392C18.3673 10.0081 18.7328 9.65869 19.1837 9.65869C19.6345 9.65869 20 10.0081 20 10.4392V17.2684C20 17.9929 19.699 18.6878 19.1632 19.2001C18.6273 19.7124 17.9006 20.0002 17.1429 20.0002H2.85714C2.09938 20.0002 1.37266 19.7124 0.836838 19.2001C0.301019 18.6878 0 17.9929 0 17.2684V10.4392C0 10.0081 0.365482 9.65869 0.816327 9.65869Z" fill="black"/>
<g id="Group_2">
<path id="Union" fill-rule="evenodd" clip-rule="evenodd" d="M10.8162 0.857941C10.8162 0.384113 10.4508 0 9.99992 0C9.54908 0 9.18359 0.384113 9.18359 0.857941V12.4896L6.38639 9.88048C6.06368 9.57946 5.54685 9.58556 5.23202 9.8941C4.91718 10.2026 4.92356 10.6968 5.24627 10.9978L9.42994 14.9002C9.74703 15.196 10.253 15.196 10.5701 14.9002L14.7537 10.9978C15.0764 10.6968 15.0828 10.2026 14.768 9.8941C14.4532 9.58556 13.9363 9.57946 13.6136 9.88048L10.8162 12.4898V0.857941Z" fill="black"/>
</g>
</g>
</g>
</g>
</svg>
