<svg width="60" height="60" viewBox="0 0 60 60" fill="none" xmlns="http://www.w3.org/2000/svg">
<path d="M48.75 18.75H41.25V13.125C41.25 10.1413 40.0647 7.27983 37.955 5.17005C35.8452 3.06026 32.9837 1.875 30 1.875C27.0163 1.875 24.1548 3.06026 22.045 5.17005C19.9353 7.27983 18.75 10.1413 18.75 13.125V18.75H11.25C10.2554 18.75 9.30161 19.1451 8.59835 19.8484C7.89509 20.5516 7.5 21.5054 7.5 22.5V48.75C7.5 49.7446 7.89509 50.6984 8.59835 51.4016C9.30161 52.1049 10.2554 52.5 11.25 52.5H48.75C49.7446 52.5 50.6984 52.1049 51.4016 51.4016C52.1049 50.6984 52.5 49.7446 52.5 48.75V22.5C52.5 21.5054 52.1049 20.5516 51.4016 19.8484C50.6984 19.1451 49.7446 18.75 48.75 18.75ZM22.5 13.125C22.5 11.1359 23.2902 9.22822 24.6967 7.8217C26.1032 6.41518 28.0109 5.625 30 5.625C31.9891 5.625 33.8968 6.41518 35.3033 7.8217C36.7098 9.22822 37.5 11.1359 37.5 13.125V18.75H22.5V13.125ZM48.75 48.75H11.25V22.5H48.75V48.75ZM32.8125 35.625C32.8125 36.1813 32.6475 36.725 32.3385 37.1875C32.0295 37.6501 31.5902 38.0105 31.0763 38.2234C30.5624 38.4363 29.9969 38.492 29.4513 38.3835C28.9057 38.2749 28.4046 38.0071 28.0113 37.6137C27.6179 37.2204 27.3501 36.7193 27.2415 36.1737C27.133 35.6281 27.1887 35.0626 27.4016 34.5487C27.6145 34.0348 27.9749 33.5955 28.4375 33.2865C28.9 32.9775 29.4437 32.8125 30 32.8125C30.7459 32.8125 31.4613 33.1088 31.9887 33.6363C32.5162 34.1637 32.8125 34.8791 32.8125 35.625Z" fill="#B4AB9D"/>
</svg>
