<svg width="60" height="60" viewBox="0 0 60 60" fill="none" xmlns="http://www.w3.org/2000/svg">
<rect width="60" height="60" fill="#737373"/>
<g id="&#208;&#159;&#209;&#128;&#208;&#176;&#208;&#178;&#208;&#190;&#208;&#178;&#208;&#176;&#209;&#143; &#208;&#191;&#209;&#128;&#208;&#184;&#209;&#128;&#208;&#190;&#208;&#180;&#208;&#176; &#208;&#151;&#208;&#159;&#208;&#152;&#208;&#164; (1920-1440)" clip-path="url(#clip0_0_1)">
<rect width="1920" height="7501" transform="translate(-120 -1963)" fill="#504C47"/>
<g id="Frame 9879">
<g id="Frame 9861">
<g id="Frame 9878">
<g id="Frame 9876">
<g id="Frame 9871">
<g id="percent">
<path id="Vector" d="M48.2021 14.4469L14.4521 48.1969C14.1003 48.5487 13.6231 48.7464 13.1255 48.7464C12.628 48.7464 12.1508 48.5487 11.799 48.1969C11.4472 47.8451 11.2495 47.3679 11.2495 46.8703C11.2495 46.3728 11.4472 45.8956 11.799 45.5438L45.549 11.7938C45.9005 11.442 46.3774 11.2442 46.8747 11.244C47.3721 11.2437 47.8491 11.4411 48.2009 11.7926C48.5528 12.1441 48.7505 12.621 48.7508 13.1183C48.751 13.6157 48.5536 14.0927 48.2021 14.4446V14.4469ZM11.8459 23.775C10.2636 22.1924 9.37478 20.0461 9.375 17.8082C9.37522 15.5703 10.2644 13.4241 11.847 11.8418C13.4296 10.2595 15.576 9.37075 17.8139 9.37097C20.0518 9.37119 22.198 10.2604 23.7802 11.843C25.3625 13.4256 26.2513 15.5719 26.2511 17.8098C26.2509 20.0478 25.3617 22.1939 23.7791 23.7762C22.1965 25.3585 20.0501 26.2473 17.8122 26.2471C15.5743 26.2468 13.4281 25.3576 11.8459 23.775ZM13.1255 17.8125C13.1262 18.5833 13.3168 19.342 13.6806 20.0214C14.0444 20.7009 14.5701 21.2802 15.2113 21.708C15.8524 22.1358 16.5891 22.3989 17.3561 22.474C18.1232 22.5492 18.897 22.434 19.6089 22.1387C20.3208 21.8434 20.949 21.3771 21.4377 20.7812C21.9264 20.1852 22.2606 19.4779 22.4108 18.7219C22.5609 17.9659 22.5223 17.1846 22.2984 16.4471C22.0745 15.7096 21.6722 15.0387 21.1271 14.4938C20.4713 13.8381 19.6357 13.3918 18.7261 13.2111C17.8165 13.0305 16.8738 13.1237 16.0172 13.479C15.1606 13.8343 14.4286 14.4357 13.9139 15.2071C13.3992 15.9784 13.1248 16.8852 13.1255 17.8125ZM50.6255 42.1875C50.6251 44.1396 49.9478 46.0311 48.7091 47.5397C47.4704 49.0484 45.747 50.0809 43.8324 50.4613C41.9177 50.8417 39.9305 50.5465 38.2091 49.626C36.4878 48.7054 35.1388 47.2165 34.3922 45.4129C33.6455 43.6094 33.5473 41.6027 34.1143 39.7348C34.6813 37.8669 35.8784 36.2534 37.5017 35.1692C39.1249 34.085 41.0739 33.5972 43.0165 33.7889C44.9591 33.9805 46.7752 34.8398 48.1552 36.2203C48.9412 37.0022 49.5642 37.9322 49.9882 38.9564C50.4123 39.9807 50.6289 41.079 50.6255 42.1875ZM46.8755 42.1875C46.8758 41.103 46.5 40.052 45.8121 39.2136C45.1243 38.3751 44.1671 37.8011 43.1034 37.5893C42.0398 37.3775 40.9357 37.5411 39.9792 38.0521C39.0226 38.5632 38.2729 39.3901 37.8577 40.3919C37.4425 41.3938 37.3875 42.5086 37.7022 43.5465C38.0168 44.5843 38.6815 45.481 39.5832 46.0836C40.4848 46.6863 41.5675 46.9577 42.6468 46.8515C43.7261 46.7454 44.7351 46.2683 45.5021 45.5016C45.9388 45.0674 46.285 44.551 46.5207 43.9821C46.7565 43.4133 46.8771 42.8033 46.8755 42.1875Z" fill="#B4AB9D"/>
</g>
</g>
</g>
</g>
</g>
</g>
</g>
<defs>
<clipPath id="clip0_0_1">
<rect width="1920" height="7501" fill="white" transform="translate(-120 -1963)"/>
</clipPath>
</defs>
</svg>
