<svg width="60" height="60" viewBox="0 0 60 60" fill="none" xmlns="http://www.w3.org/2000/svg">
<path d="M23.4378 27.2883C23.7229 27.1237 23.9597 26.8869 24.1242 26.6018C24.2888 26.3167 24.3754 25.9933 24.3753 25.6641V8.78906C24.3737 8.49013 24.3005 8.19593 24.1621 7.931C24.0236 7.66607 23.8238 7.43809 23.5793 7.26607C23.3348 7.09406 23.0527 6.98299 22.7566 6.94215C22.4604 6.9013 22.1588 6.93185 21.8769 7.03125C16.4042 8.96816 11.8019 12.7937 8.89726 17.8202C5.99265 22.8466 4.97626 28.7444 6.03081 34.4531C6.08547 34.7483 6.21023 35.0261 6.39458 35.2631C6.57893 35.5 6.81748 35.6893 7.09019 35.8148C7.33594 35.9298 7.60405 35.989 7.87534 35.9883C8.20444 35.9884 8.52777 35.9019 8.81284 35.7375L23.4378 27.2883ZM20.6253 11.6297V24.5812L9.40347 31.057C9.37534 30.7031 9.37534 30.3469 9.37534 30C9.37867 26.1993 10.4307 22.4732 12.4156 19.232C14.4006 15.9907 17.2414 13.3601 20.6253 11.6297ZM30.0003 5.625C29.5031 5.625 29.0261 5.82254 28.6745 6.17417C28.3229 6.52581 28.1253 7.00272 28.1253 7.5V29.0203L9.65425 39.7805C9.43991 39.9047 9.25231 40.0702 9.10231 40.2674C8.95231 40.4646 8.84287 40.6895 8.78032 40.9293C8.71777 41.169 8.70336 41.4187 8.7379 41.6641C8.77245 41.9094 8.85528 42.1455 8.98159 42.3586C11.1465 46.039 14.2403 49.0861 17.9531 51.1949C21.666 53.3037 25.8677 54.4002 30.1375 54.3746C34.4074 54.3489 38.5956 53.2021 42.2828 51.0489C45.9701 48.8957 49.0271 45.8117 51.1477 42.1056C53.2683 38.3995 54.3782 34.2013 54.3662 29.9314C54.3541 25.6615 53.2207 21.4697 51.0792 17.7755C48.9378 14.0814 45.8635 11.0146 42.1642 8.88223C38.4649 6.74982 34.2703 5.62659 30.0003 5.625ZM30.0003 50.625C26.7272 50.6162 23.5026 49.8327 20.5903 48.3385C17.6781 46.8443 15.161 44.6819 13.2449 42.0281L30.9449 31.7156C31.2296 31.5512 31.4661 31.3148 31.6307 31.0302C31.7952 30.7455 31.882 30.4226 31.8824 30.0937V9.45938C37.1709 9.93919 42.0705 12.4403 45.5612 16.4419C49.052 20.4435 50.8648 25.6373 50.6222 30.942C50.3797 36.2466 48.1006 41.2533 44.2593 44.9198C40.418 48.5862 35.3105 50.6297 30.0003 50.625Z" fill="#B4AB9D"/>
</svg>
