<svg width="60" height="60" viewBox="0 0 60 60" fill="none" xmlns="http://www.w3.org/2000/svg">
<path d="M50.625 15H13.125C12.6277 15 12.1508 14.8025 11.7992 14.4508C11.4475 14.0992 11.25 13.6223 11.25 13.125C11.25 12.6277 11.4475 12.1508 11.7992 11.7992C12.1508 11.4475 12.6277 11.25 13.125 11.25H45C45.4973 11.25 45.9742 11.0525 46.3258 10.7008C46.6775 10.3492 46.875 9.87228 46.875 9.375C46.875 8.87772 46.6775 8.40081 46.3258 8.04918C45.9742 7.69754 45.4973 7.5 45 7.5H13.125C11.6332 7.5 10.2024 8.09263 9.14752 9.14752C8.09263 10.2024 7.5 11.6332 7.5 13.125V43.125C7.5 44.6168 8.09263 46.0476 9.14752 47.1025C10.2024 48.1574 11.6332 48.75 13.125 48.75H50.625C51.6196 48.75 52.5734 48.3549 53.2766 47.6516C53.9799 46.9484 54.375 45.9946 54.375 45V18.75C54.375 17.7554 53.9799 16.8016 53.2766 16.0984C52.5734 15.3951 51.6196 15 50.625 15ZM50.625 45H13.125C12.6277 45 12.1508 44.8025 11.7992 44.4508C11.4475 44.0992 11.25 43.6223 11.25 43.125V18.4289C11.8521 18.6423 12.4862 18.7509 13.125 18.75H50.625V45ZM39.375 30.9375C39.375 30.3812 39.54 29.8375 39.849 29.375C40.158 28.9124 40.5973 28.552 41.1112 28.3391C41.6251 28.1262 42.1906 28.0705 42.7362 28.179C43.2818 28.2876 43.7829 28.5554 44.1762 28.9488C44.5696 29.3421 44.8374 29.8432 44.946 30.3888C45.0545 30.9344 44.9988 31.4999 44.7859 32.0138C44.573 32.5277 44.2126 32.967 43.75 33.276C43.2875 33.585 42.7438 33.75 42.1875 33.75C41.4416 33.75 40.7262 33.4537 40.1988 32.9262C39.6713 32.3988 39.375 31.6834 39.375 30.9375Z" fill="#B4AB9D"/>
</svg>
