<svg width="428" height="215" viewBox="0 0 428 215" fill="none" xmlns="http://www.w3.org/2000/svg">
<g clip-path="url(#clip0_5_2609)">
<path d="M347.22 214.69H307.07L294 199.24L281.2 184.03L273.96 175.46L255.3 153.37L253.89 151.69L233.81 127.92L229.39 122.69L213.73 104.15L203.51 92.04L193.68 80.41L177.6 61.36L173.6 56.61L169.6 61.36L153.52 80.38L143.69 92.04L133.44 104.15L117.78 122.69L113.36 127.92L93.31 151.69L91.87 153.37L73.24 175.43L66 184.03H173.6V214.69H0L13.04 199.24L25.87 184.03L33.11 175.46L51.74 153.37L53.18 151.69L73.23 127.92L77.65 122.69L93.31 104.15L103.56 92.04L113.39 80.38L129.47 61.36L133.47 56.64L153.52 32.87L155.35 30.71L173.59 9.09998L191.83 30.71L193.66 32.84L213.74 56.61L217.74 61.36L233.79 80.38L243.65 92.04L253.87 104.15L269.53 122.69L273.95 127.92L294.03 151.69L295.44 153.37L314.07 175.43V175.46L321.34 184.03L334.14 199.21L347.21 214.69H347.22Z" fill="#2B2B2A"/>
<path d="M427.5 214.68H387.35L374.31 199.23L361.48 184.02L354.24 175.45L335.58 153.36L334.17 151.68L314.09 127.91L309.67 122.68L294.04 104.14L304.26 92.03L314.09 80.4L330.17 61.35L334.17 56.6L354.25 32.86L356.08 30.7L374.32 9.09001L381.98 0.0100098H422.1L414.44 9.09001L396.2 30.7L394.37 32.86L374.32 56.63L370.32 61.35L354.24 80.37L344.38 92.03L334.16 104.14L349.82 122.68L354.24 127.91L374.32 151.68L375.73 153.36L394.36 175.45L401.6 184.02L414.43 199.23L427.5 214.68Z" fill="#2B2B2A"/>
</g>
<defs>
<clipPath id="clip0_5_2609">
<rect width="427.5" height="214.69" fill="white"/>
</clipPath>
</defs>
</svg>
